# xmcd
#
# Track frame offsets: 
#        150
#        17409
#        36280
#        55285
#        69529
#        84039
#        100678
#        119138
#        140907
#        158028
#        173974
#        187870
#        210254
#        229384
#        243969
#
# Disc length: 3449 seconds
#
# Revision: 0
# Processed by: cddbd v1.5.2PL0 Copyright (c) Steve Scherf et al.
# Submitted via: ExactAudioCopy v0.99pb5
#
DISCID=c40d770f
DTITLE=Schorsch and  de Bagasch - Jedn Dog
DYEAR=2009
DGENRE=Bluea
TTITLE0=Supa schaugst aus
TTITLE1=Auf da Roas
TTITLE2=Dram an Blues
TTITLE3=Seinerzeit
TTITLE4=Normalerweis
TTITLE5=Roll mit mia Baby
TTITLE6=Da Grantler
TTITLE7=Konrad and Nora
TTITLE8=Wos des ois bedeit
TTITLE9=Nix mit uns zwoa
TTITLE10=Tabor Süden
TTITLE11=Wolkn auf da Seel
TTITLE12=Jedn Tog
TTITLE13=Zwida
TTITLE14=Zugabe: Wos des ois bedeit (Wohnzimmerversion)
EXTD=
EXTT0=
EXTT1=
EXTT2=
EXTT3=
EXTT4=
EXTT5=
EXTT6=
EXTT7=
EXTT8=
EXTT9=
EXTT10=
EXTT11=
EXTT12=
EXTT13=
EXTT14=
PLAYORDER=
